<svg xmlns="http://www.w3.org/2000/svg" version="1.1" xmlns:xlink="http://www.w3.org/1999/xlink" xmlns:svgjs="http://svgjs.dev/svgjs" width="128" height="128" viewBox="0 0 128 128"><g transform="matrix(0.8046875,0,0,0.8046875,12.760752631578946,12.760752631578946)"><svg viewBox="0 0 95 95" data-background-color="#ffffff" preserveAspectRatio="xMidYMid meet" height="128" width="128" xmlns="http://www.w3.org/2000/svg" xmlns:xlink="http://www.w3.org/1999/xlink"><g id="tight-bounds" transform="matrix(1,0,0,1,-0.24049999999999727,-0.24049999999999727)"><svg viewBox="0 0 95.481 95.481" height="95.481" width="95.481"><g><svg viewBox="0 0 95.481 95.481" height="95.481" width="95.481"><g><svg viewBox="0 0 95.481 95.481" height="95.481" width="95.481"><g id="textblocktransform"><svg viewBox="0 0 95.481 95.481" height="95.481" width="95.481" id="textblock"><g><svg viewBox="0 0 95.481 95.481" height="95.481" width="95.481"><g><svg viewBox="0 0 95.481 95.481" height="95.481" width="95.481"><g><svg xmlns="http://www.w3.org/2000/svg" xmlns:xlink="http://www.w3.org/1999/xlink" version="1.1" x="0" y="0" viewBox="0 0 100 100" enable-background="new 0 0 100 100" xml:space="preserve" height="95.481" width="95.481" class="icon-icon-0" data-fill-palette-color="accent" id="icon-0"><g fill="#0441b1" data-fill-palette-color="accent"><circle cx="73.3" cy="54.639" r="3.8" fill="#0441b1" data-fill-palette-color="accent"></circle><path d="M32.04 100V81.683h18.798V100h8.284V81.683h28.354V100h12.478c0.015-0.152 0.046-0.301 0.046-0.457V4.705C100 2.117 97.884 0 95.295 0H24.686c-2.587 0-4.705 2.117-4.705 4.705v33.193H0V100H32.04zM59.122 11.645h28.354v19.753H59.122V11.645zM59.122 46.733h28.354v19.753h-5.062v-1.172c0-3.143-2.557-5.699-5.699-5.699h-6.833c-3.143 0-5.699 2.557-5.699 5.699v1.172h-5.062V46.733zM32.04 11.645h18.798v19.753H32.04V11.645zM32.04 46.733h18.798v19.753H32.04V46.733z" fill="#0441b1" data-fill-palette-color="accent"></path></g></svg></g></svg></g></svg></g></svg></g></svg></g></svg></g><defs></defs></svg><rect width="95.481" height="95.481" fill="none" stroke="none" visibility="hidden"></rect></g></svg></g></svg>