<svg xmlns="http://www.w3.org/2000/svg" version="1.1" xmlns:xlink="http://www.w3.org/1999/xlink" xmlns:svgjs="http://svgjs.dev/svgjs" width="2000" height="439" viewBox="0 0 2000 439"><g transform="matrix(1,0,0,1,-1.2121212121212466,-0.910798667659094)"><svg viewBox="0 0 396 87" data-background-color="#ffffff" preserveAspectRatio="xMidYMid meet" height="439" width="2000" xmlns="http://www.w3.org/2000/svg" xmlns:xlink="http://www.w3.org/1999/xlink"><g id="tight-bounds" transform="matrix(1,0,0,1,0.2400000000000091,0.18049996375020783)"><svg viewBox="0 0 395.52 86.63900007249956" height="86.63900007249956" width="395.52"><g><svg viewBox="0 0 536.8210490044642 117.59111777815802" height="86.63900007249956" width="395.52"><g transform="matrix(1,0,0,1,0,33.68719206408815)"><svg viewBox="0 0 395.52 50.21673364998173" height="50.21673364998173" width="395.52"><g id="textblocktransform"><svg viewBox="0 0 395.52 50.21673364998173" height="50.21673364998173" width="395.52" id="textblock"><g><svg viewBox="0 0 395.52 50.21673364998173" height="50.21673364998173" width="395.52"><g transform="matrix(1,0,0,1,0,0)"><svg width="395.52" viewBox="3.65 -34.35 273.68 34.75" height="50.21673364998173" data-palette-color="#010c80"><g class="wordmark-text-0" data-fill-palette-color="primary" id="text-0"><path d="M23.95-19.2L23.95-33.7 29.1-33.7 29.1 0 23.95 0 23.95-14.75 8.8-14.75 8.8 0 3.65 0 3.65-33.7 8.8-33.7 8.8-19.2 23.95-19.2ZM35.1-17L35.1-17Q35.1-24.85 39.3-29.6 43.5-34.35 50.55-34.35L50.55-34.35Q57.75-34.35 61.9-29.63 66.05-24.9 66.05-17 66.05-9.1 61.87-4.35 57.7 0.4 50.6 0.4L50.6 0.4Q43.55 0.4 39.32-4.35 35.1-9.1 35.1-17ZM43.17-26.18Q40.5-22.8 40.5-17 40.5-11.2 43.25-7.8 46-4.4 50.6-4.4L50.6-4.4Q55.35-4.4 58-7.75 60.65-11.1 60.65-17L60.65-17Q60.65-22.85 57.97-26.2 55.3-29.55 50.55-29.55L50.55-29.55Q45.85-29.55 43.17-26.18ZM76.65 0L71.55 0 74.15-33.7 80.25-33.7 84.75-21.4Q85.95-18.25 87.15-14.73 88.35-11.2 88.95-9.25L88.95-9.25 89.6-7.3Q91.9-14.1 94.65-21.4L94.65-21.4 99.35-33.7 105.45-33.7 108.55 0 103.45 0 102.25-13.2 101.2-26.7Q98.95-20.35 96.3-13.2L96.3-13.2 91.6-0.65 87.55-0.65 83-13.2 78.45-26.5Q78.45-24.3 77.65-13.2L77.65-13.2 76.65 0ZM120.54-14.7L120.54-4.3 134.84-4.3 134.84 0 115.39 0 115.39-33.7 134.59-33.7 134.59-29.4 120.54-29.4 120.54-19 132.99-19 132.99-14.7 120.54-14.7ZM159.29-32.35L159.29-32.35 159.29-27.25Q155.94-29.35 151.69-29.35L151.69-29.35Q148.94-29.35 147.37-28.13 145.79-26.9 145.79-24.9 145.79-22.9 147.34-21.7 148.89-20.5 152.09-19.1L152.09-19.1Q154.19-18.2 155.37-17.55 156.54-16.9 158.07-15.73 159.59-14.55 160.32-12.93 161.04-11.3 161.04-9.2L161.04-9.2Q161.04-4.75 157.89-2.2 154.74 0.35 149.74 0.35L149.74 0.35Q144.19 0.35 140.54-1.8L140.54-1.8 140.54-7.15Q144.49-4.2 149.69-4.2L149.69-4.2Q152.44-4.2 154.04-5.48 155.64-6.75 155.64-9L155.64-9Q155.64-10.35 154.69-11.48 153.74-12.6 152.64-13.18 151.54-13.75 149.34-14.75L149.34-14.75Q148.04-15.35 147.52-15.6 146.99-15.85 145.79-16.5 144.59-17.15 144.02-17.6 143.44-18.05 142.59-18.85 141.74-19.65 141.37-20.45 140.99-21.25 140.67-22.33 140.34-23.4 140.34-24.65L140.34-24.65Q140.34-28.95 143.47-31.45 146.59-33.95 151.54-33.95L151.54-33.95Q156.09-33.95 159.29-32.35ZM191.49-32.3L191.49-32.3 191.49-27.25Q189.29-28.45 187.51-28.93 185.74-29.4 182.99-29.4L182.99-29.4Q177.94-29.4 174.56-25.98 171.19-22.55 171.19-16.9L171.19-16.9Q171.19-11.15 174.54-7.75 177.89-4.35 183.39-4.35L183.39-4.35Q188.24-4.35 191.54-6.85L191.54-6.85 191.54-1.65Q188.44 0.4 182.94 0.4L182.94 0.4Q175.39 0.4 170.59-4.3 165.79-9 165.79-16.9L165.79-16.9Q165.79-24.55 170.61-29.35 175.44-34.15 182.84-34.15L182.84-34.15Q188.24-34.15 191.49-32.3ZM205.39-14.25L204.84-12.55 215.64-12.55 215.09-14.25Q213.19-20.15 211.99-24.03 210.79-27.9 210.54-28.85L210.54-28.85 210.29-29.8Q209.74-27.45 205.39-14.25L205.39-14.25ZM225.19 0L219.69 0 217.04-8.25 203.44-8.25 200.74 0 195.29 0 206.94-33.7 213.69-33.7 225.19 0ZM235.53-29.45L235.53-16.2 239.93-16.2Q243.58-16.2 245.51-18 247.43-19.8 247.43-22.75L247.43-22.75Q247.43-25.85 245.48-27.65 243.53-29.45 239.83-29.45L239.83-29.45 235.53-29.45ZM230.38 0L230.38-33.7 240.03-33.7Q245.83-33.7 249.23-30.63 252.63-27.55 252.63-22.75 252.63-17.95 249.21-14.95 245.78-11.95 240.33-11.95L240.33-11.95 235.53-11.95 235.53 0 230.38 0ZM263.03-14.7L263.03-4.3 277.33-4.3 277.33 0 257.88 0 257.88-33.7 277.08-33.7 277.08-29.4 263.03-29.4 263.03-19 275.48-19 275.48-14.7 263.03-14.7Z" fill="#000000" data-fill-palette-color="primary"></path></g></svg></g></svg></g></svg></g></svg></g><g transform="matrix(1,0,0,1,419.2299312263062,0)"><svg viewBox="0 0 117.59111777815802 117.59111777815802" height="117.59111777815802" width="117.59111777815802"><g><svg></svg></g><g id="icon-0"><svg viewBox="0 0 117.59111777815802 117.59111777815802" height="117.59111777815802" width="117.59111777815802"><g><path d="M0 58.796c0-32.472 26.324-58.796 58.796-58.796 32.472 0 58.796 26.324 58.795 58.796 0 32.472-26.324 58.796-58.795 58.795-32.472 0-58.796-26.324-58.796-58.795zM58.796 113.063c29.971 0 54.267-24.296 54.267-54.267 0-29.971-24.296-54.267-54.267-54.267-29.971 0-54.267 24.296-54.267 54.267 0 29.971 24.296 54.267 54.267 54.267z" data-fill-palette-color="accent" fill="#000000" stroke="transparent"></path></g><g transform="matrix(1,0,0,1,29.064975656444027,29.064975656444027)"><svg viewBox="0 0 59.46116646526997 59.46116646526997" height="59.46116646526997" width="59.46116646526997"><g><svg xmlns="http://www.w3.org/2000/svg" xmlns:xlink="http://www.w3.org/1999/xlink" version="1.1" x="0" y="0" viewBox="0 0 100 100" enable-background="new 0 0 100 100" xml:space="preserve" height="59.46116646526997" width="59.46116646526997" class="icon-z$-0" data-fill-palette-color="accent" id="z$-0"><g fill="#0441b1" data-fill-palette-color="accent"><circle cx="73.3" cy="54.639" r="3.8" fill="#000000" data-fill-palette-color="accent"></circle><path d="M32.04 100V81.683h18.798V100h8.284V81.683h28.354V100h12.478c0.015-0.152 0.046-0.301 0.046-0.457V4.705C100 2.117 97.884 0 95.295 0H24.686c-2.587 0-4.705 2.117-4.705 4.705v33.193H0V100H32.04zM59.122 11.645h28.354v19.753H59.122V11.645zM59.122 46.733h28.354v19.753h-5.062v-1.172c0-3.143-2.557-5.699-5.699-5.699h-6.833c-3.143 0-5.699 2.557-5.699 5.699v1.172h-5.062V46.733zM32.04 11.645h18.798v19.753H32.04V11.645zM32.04 46.733h18.798v19.753H32.04V46.733z" fill="#000000" data-fill-palette-color="accent"></path></g></svg></g></svg></g></svg></g></svg></g></svg></g><defs></defs></svg><rect width="395.52" height="86.63900007249956" fill="none" stroke="none" visibility="hidden"></rect></g></svg></g></svg>